# xmcd
#
# Track frame offsets:
#	150
#	12750
#	26070
#	37408
#	56653
#	69640
#	82610
#	110447
#	123670
#	154730
#	175645
#	189455
#	210272
#	229058
#	245568
#	262822
#	280916
#
# Disc length: 3990
#
# Revision: 1
# Processed by: cddbd v1.5.1PL0 Copyright (c) Steve Scherf et al.
# Submitted via: CDex 1.51
# Normalized: r0:TRMNUM
#
DISCID=e10f9411
DTITLE=LandesJugendJazzOrchester MV - Get off of my music MV Vol. 2 CD 3
DYEAR=2003
DGENRE=Jazz
TTITLE0=Satin Doll
TTITLE1=Stompin´ At The Savoy
TTITLE2=One-O-Clock Jump
TTITLE3=Moonglow
TTITLE4=Just Friends
TTITLE5=Basie Straight Ahead
TTITLE6=Bluer Than Blue
TTITLE7=Fly Me To The Moon
TTITLE8=Acha
TTITLE9=Georgia On My Mind
TTITLE10=Let´s Fall In Love
TTITLE11=Wind Machine
TTITLE12=Samantha
TTITLE13=Don´t Get Around Anymore
TTITLE14=Somewhere
TTITLE15=Tuxedo Junction
TTITLE16=Over The Rainbow
EXTD=YEAR: 2003
EXTT0=
EXTT1=
EXTT2=
EXTT3=
EXTT4=
EXTT5=
EXTT6=
EXTT7=
EXTT8=
EXTT9=
EXTT10=
EXTT11=
EXTT12=
EXTT13=
EXTT14=
EXTT15=
EXTT16=
PLAYORDER=
